<svg data-v-423bf9ae="" xmlns="http://www.w3.org/2000/svg" viewBox="0 0 249.04590056170238 60" class="font"><!----><!----><!----><g data-v-423bf9ae="" id="9a90397f-2670-4144-acc7-436ac148b2be" fill="#FFD009" transform="matrix(4.369992862376109,0,0,4.369992862376109,-4.894390108567933,-13.459577682714418)"><path d="M4.84 13.96C5.85 13.96 6.80 13.54 7.55 12.84L7.04 12.10C6.47 12.60 5.77 13.01 4.93 13.01C3.36 13.01 2.31 11.89 2.31 10.22C2.31 8.55 3.39 7.42 4.96 7.42C5.67 7.42 6.26 7.73 6.82 8.26L7.39 7.52C6.83 6.94 6.02 6.47 4.91 6.47C2.86 6.47 1.12 7.83 1.12 10.22C1.12 12.59 2.72 13.96 4.84 13.96ZM10.44 13.78L11.59 13.78L11.59 9.56C12.40 8.06 13.37 7.50 14.39 7.50C14.92 7.50 15.18 7.57 15.65 7.76L15.92 6.76C15.50 6.54 15.08 6.47 14.57 6.47C13.31 6.47 12.25 7.20 11.54 8.34L11.49 8.34L11.40 6.64L10.44 6.64ZM21.28 5.04C21.83 5.04 22.26 4.65 22.26 4.07C22.26 3.49 21.83 3.08 21.28 3.08C20.73 3.08 20.30 3.49 20.30 4.07C20.30 4.65 20.73 5.04 21.28 5.04ZM18.20 13.78L24.64 13.78L24.64 12.82L21.99 12.82L21.99 6.64L18.20 6.64L18.20 7.57L20.85 7.57L20.85 12.82L18.20 12.82ZM30.04 13.96C31.05 13.96 32.00 13.54 32.75 12.84L32.24 12.10C31.67 12.60 30.97 13.01 30.13 13.01C28.56 13.01 27.51 11.89 27.51 10.22C27.51 8.55 28.59 7.42 30.16 7.42C30.87 7.42 31.46 7.73 32.02 8.26L32.59 7.52C32.03 6.94 31.22 6.47 30.11 6.47C28.06 6.47 26.32 7.83 26.32 10.22C26.32 12.59 27.92 13.96 30.04 13.96ZM35.08 13.78L36.23 13.78L36.23 11.83L37.84 10.16L40.35 13.78L41.64 13.78L38.56 9.46L41.27 6.64L39.96 6.64L36.29 10.46L36.23 10.46L36.23 3.60L35.08 3.60ZM42.99 13.78L49.45 13.78L49.45 12.84L44.63 12.84L49.31 7.25L49.31 6.64L43.51 6.64L43.51 7.57L47.66 7.57L42.99 13.16ZM52.23 16.81C53.77 16.81 54.60 15.74 55.13 14.36L58.11 6.64L57.02 6.64L55.54 10.65C55.30 11.30 55.05 12.04 54.81 12.71L54.75 12.71C54.47 12.03 54.18 11.28 53.91 10.65L52.25 6.64L51.09 6.64L54.26 13.80L54.07 14.31C53.70 15.25 53.14 15.86 52.19 15.86C51.98 15.86 51.76 15.82 51.58 15.76L51.34 16.67C51.58 16.76 51.91 16.81 52.23 16.81Z"></path></g><!----><!----></svg>